<?xml version="1.0" ?><svg height="512px" version="1.1" viewBox="0 0 512 512" width="512px" xmlns="http://www.w3.org/2000/svg" xmlns:xlink="http://www.w3.org/1999/xlink"><title/><desc/><defs/><g fill="none" fill-rule="evenodd" id="SVG" stroke="none" stroke-width="1"><g id="Bikini"><g transform="translate(0.000000, 61.000000)"><path d="M139.472259,212.066386 C138.600476,212.066386 137.714854,211.955745 136.829232,211.727548 C131.287178,210.268469 127.973016,204.598116 129.425989,199.059148 C130.595286,194.612761 159.059719,89.7181336 251.039827,53.5730865 C256.388151,51.4778217 262.400692,54.0986315 264.490205,59.4301469 C266.593557,64.7616624 263.964368,70.7846844 258.6368,72.8799492 C176.357016,105.20788 149.760692,203.332659 149.504692,204.321513 C148.280043,208.982267 144.073341,212.066386 139.472259,212.066386" fill="#2E2E30" id="Fill-1"/><path d="M10.374227,345.131608 C10.374227,345.131608 80.3660108,400.009567 221.636497,371.000868 C221.636497,371.000868 215.354119,208.600556 133.731632,208.600556 C52.1160649,208.600556 10.374227,345.131608 10.374227,345.131608" fill="#D73838" id="Fill-3"/><path d="M10.374227,345.131608 C10.374227,345.131608 80.3660108,400.009567 221.636497,371.000868 C221.636497,371.000868 215.354119,208.600556 133.731632,208.600556 C52.1160649,208.600556 10.374227,345.131608 10.374227,345.131608" fill="#D73838" id="Fill-8"/><path d="M182.517622,377.186394 C194.888649,375.824126 207.916973,373.818757 221.63027,371.004325 C221.63027,371.004325 215.354811,208.597098 133.732324,208.597098 C129.117405,208.597098 124.640865,209.094983 120.275027,209.917876 C171.952432,245.952282 181.196108,355.756606 182.517622,377.186394" fill="#010201" fill-opacity="0.3" id="Fill-13"/><path d="M22.7826162,340.862938 C41.6020757,352.051514 104.425859,382.083643 210.672778,362.569328 C209.531157,348.642386 206.369211,320.304448 198.232562,292.374499 C184.048778,243.664778 162.34413,218.971079 133.7344,218.971079 C70.8829405,218.971079 32.5382919,313.534599 22.7826162,340.862938 M141.995589,389.890752 C51.9458595,389.890752 6.35018378,355.156378 3.97007568,353.28931 C0.600562162,350.647755 -0.797059459,346.194453 0.448345946,342.100735 C2.24726486,336.229844 45.4420757,198.225883 133.7344,198.225883 C224.303049,198.225883 231.733968,363.565098 232.003805,370.597719 C232.204454,375.673377 228.696562,380.140509 223.721859,381.163939 C193.299373,387.408243 166.059589,389.890752 141.995589,389.890752" fill="#2E2E30" id="Fill-5"/><path d="M22.7826162,340.862938 C41.6020757,352.051514 104.425859,382.083643 210.672778,362.569328 C209.531157,348.642386 206.369211,320.304448 198.232562,292.374499 C184.048778,243.664778 162.34413,218.971079 133.7344,218.971079 C70.8829405,218.971079 32.5382919,313.534599 22.7826162,340.862938 M141.995589,389.890752 C51.9458595,389.890752 6.35018378,355.156378 3.97007568,353.28931 C0.600562162,350.647755 -0.797059459,346.194453 0.448345946,342.100735 C2.24726486,336.229844 45.4420757,198.225883 133.7344,198.225883 C224.303049,198.225883 231.733968,363.565098 232.003805,370.597719 C232.204454,375.673377 228.696562,380.140509 223.721859,381.163939 C193.299373,387.408243 166.059589,389.890752 141.995589,389.890752" fill="#2E2E30" id="Fill-10"/><path d="M70.7065081,371.001559 C70.7065081,371.001559 76.7398054,345.132299 70.7065081,338.85342" fill="#D73838" id="Fill-15"/><path d="M70.7217297,381.374157 C69.9398919,381.374157 69.1442162,381.284261 68.3554595,381.097555 C62.7788108,379.804437 59.3055135,374.230895 60.5993514,368.657352 C62.7234595,359.501805 63.6436757,348.658983 62.6127568,345.346666 C59.2847568,341.204542 59.6099459,335.133115 63.5191351,331.378234 C67.6358919,327.415902 74.2227027,327.533458 78.1872432,331.668667 C86.4069189,340.208773 84.1513514,359.052326 80.8164324,373.352681 C79.7024865,378.144822 75.4335135,381.374157 70.7217297,381.374157" fill="#2E2E30" id="Fill-17"/><path d="M116.003978,378.370944 L116.003978,338.85826" fill="#D73838" id="Fill-19"/><path d="M116.006054,388.744925 C110.277189,388.744925 105.627676,384.104917 105.627676,378.372327 L105.627676,338.859643 C105.627676,333.127054 110.277189,328.487045 116.006054,328.487045 C121.734919,328.487045 126.384432,333.127054 126.384432,338.859643 L126.384432,378.372327 C126.384432,384.104917 121.734919,388.744925 116.006054,388.744925" fill="#2E2E30" id="Fill-21"/><path d="M157.278789,379.464216 C157.278789,379.464216 155.708195,354.54232 165.124843,348.270356" fill="#D73838" id="Fill-23"/><path d="M157.269103,389.835431 C151.830832,389.835431 147.264346,385.610326 146.9184,380.112849 C146.461751,372.865861 146.012022,348.53866 159.372454,339.638971 C164.125751,336.458041 170.581103,337.737328 173.763805,342.515638 C176.946508,347.280119 175.65267,353.718044 170.885535,356.898975 C168.726832,358.925089 167.066292,369.816317 167.633643,378.812817 C167.993427,384.531576 163.648346,389.455103 157.9264,389.814686 C157.704995,389.828516 157.483589,389.835431 157.269103,389.835431" fill="#2E2E30" id="Fill-25"/><path d="M194.809773,20.7203021 C188.382097,20.7203021 184.244584,22.2485316 182.978422,23.8874021 C174.274422,35.2073642 174.834854,38.8031982 174.841773,38.8377735 C175.921124,40.7809069 184.168476,43.9480069 189.627503,46.0432717 C191.993773,46.9491453 194.456908,47.8965093 196.975395,48.926854 C213.961341,55.8695797 239.845016,51.2226558 246.245016,46.6656276 C244.978854,42.9522375 236.482422,33.3057212 218.776908,26.0656477 C209.083503,22.1033152 200.919178,20.7203021 194.809773,20.7203021 M218.610854,73.1641584 C207.969557,73.1641584 197.411286,71.5183728 189.115503,68.1230757 C186.742314,67.1549665 184.417557,66.2629231 182.189665,65.405455 C169.839395,60.6686351 158.174097,56.1876727 154.866854,44.4458916 C151.56653,32.7456009 159.357232,20.5543405 166.518314,11.2397474 C176.65453,-1.94036736 200.808476,-3.69679398 226.643719,6.86942601 C238.800259,11.8413581 249.510746,18.701103 256.796368,26.1970339 C269.437232,39.1973569 267.825124,49.6805962 265.735611,54.7769994 C260.816259,66.7884681 239.561341,73.1641584 218.610854,73.1641584" fill="#2E2E30" id="Fill-27"/><path d="M371.397881,212.059471 C366.803719,212.059471 362.603935,208.982267 361.372368,204.328428 C361.109449,203.339574 334.270962,105.111069 252.233341,72.8799492 C246.905773,70.7846844 244.276584,64.7616624 246.373016,59.4301469 C248.469449,54.0986315 254.495827,51.4847367 259.830314,53.5730865 C351.810422,89.7181336 380.274854,194.612761 381.444151,199.059148 C382.897124,204.598116 379.589881,210.261554 374.047827,211.713718 C373.162205,211.94883 372.269665,212.059471 371.397881,212.059471" fill="#2E2E30" id="Fill-29"/><path d="M500.496605,345.131608 C500.496605,345.131608 430.504822,400.009567 289.234335,371.000868 C289.234335,371.000868 295.516714,208.600556 377.1392,208.600556 C458.754768,208.600556 500.496605,345.131608 500.496605,345.131608" fill="#D73838" id="Fill-31"/><path d="M447.786897,368.95954 C482.976519,358.863545 500.495222,345.130225 500.495222,345.130225 C500.495222,345.130225 467.374357,236.950941 402.495654,213.232266 C438.349492,259.113726 446.292411,346.1744 447.786897,368.95954" fill="#010201" fill-opacity="0.3" id="Fill-36"/><path d="M300.255481,362.576935 C406.453968,382.091249 469.263914,352.05912 488.083373,340.863629 C478.300022,313.542206 439.879265,218.971771 377.131589,218.971771 C317.338292,218.971771 303.119914,330.069212 300.255481,362.576935 M368.8704,389.891443 C344.8064,389.891443 317.580454,387.408935 287.14413,381.164631 C282.176346,380.141201 278.668454,375.674069 278.862184,370.598411 C279.132022,363.565789 286.562941,198.226574 377.131589,198.226574 C465.423914,198.226574 508.625643,336.22362 510.424562,342.101426 C511.676886,346.195145 510.272346,350.641532 506.902832,353.290002 C504.522724,355.15707 458.92013,389.891443 368.8704,389.891443" fill="#2E2E30" id="Fill-33"/><path d="M440.164324,371.001559 C440.164324,371.001559 434.131027,345.132299 440.164324,338.85342" fill="#D73838" id="Fill-38"/><path d="M440.147719,381.374157 C435.429016,381.374157 431.166962,378.144822 430.053016,373.352681 C426.718097,359.052326 424.46253,340.208773 432.682205,331.668667 C436.653665,327.540373 443.233557,327.422817 447.350314,331.378234 C451.259503,335.133115 451.584692,341.204542 448.256692,345.346666 C447.225773,348.658983 448.145989,359.501805 450.270097,368.657352 C451.563935,374.230895 448.090638,379.804437 442.513989,381.097555 C441.725232,381.284261 440.929557,381.374157 440.147719,381.374157" fill="#2E2E30" id="Fill-40"/><path d="M394.866854,378.370944 L394.866854,338.85826" fill="#D73838" id="Fill-42"/><path d="M394.864086,388.744925 C389.135222,388.744925 384.485708,384.104917 384.485708,378.372327 L384.485708,338.859643 C384.485708,333.127054 389.135222,328.487045 394.864086,328.487045 C400.592951,328.487045 405.242465,333.127054 405.242465,338.859643 L405.242465,378.372327 C405.242465,384.104917 400.592951,388.744925 394.864086,388.744925" fill="#2E2E30" id="Fill-44"/><path d="M353.592043,379.464216 C353.592043,379.464216 355.162638,354.54232 345.745989,348.270356" fill="#D73838" id="Fill-46"/><path d="M353.600346,389.835431 C353.385859,389.835431 353.164454,389.828516 352.943049,389.814686 C347.228022,389.455103 342.882941,384.538491 343.235805,378.826647 C343.775481,369.809402 342.114941,358.904344 339.88013,356.815994 C335.106076,353.641979 333.867589,347.238628 337.050292,342.474148 C340.239914,337.702753 346.750616,336.471871 351.496995,339.638971 C364.857427,348.53866 364.407697,372.865861 363.951049,380.112849 C363.605103,385.610326 359.038616,389.835431 353.600346,389.835431" fill="#2E2E30" id="Fill-48"/><path d="M266.026205,46.6649361 C272.426205,51.2219642 298.302962,55.8758033 315.288908,48.9261625 C317.807395,47.8958178 320.27053,46.9553689 322.643719,46.0425802 C328.102746,43.9473154 336.343178,40.7802154 337.450205,38.7471862 C337.429449,38.7471862 337.93453,35.1236919 329.285881,23.8867106 C326.822746,20.6850353 313.406962,17.9190091 293.494314,26.0649562 C275.781881,33.3050297 267.292368,42.951546 266.026205,46.6649361 M293.653449,73.170382 C272.709881,73.170382 251.454962,66.7877766 246.535611,54.7763079 C244.446097,49.6868197 242.82707,39.1966654 255.474854,26.2032575 C262.753557,18.7073265 273.464043,11.8406666 285.627503,6.8687345 C311.455827,-3.69057043 335.616692,-1.94105887 345.73907,11.2390559 C352.90707,20.553649 360.704692,32.7449094 357.404368,44.4452001 C354.097124,56.1938963 342.431827,60.6679436 330.081557,65.4047635 C327.853665,66.2622316 325.528908,67.154275 323.155719,68.1292992 C314.859935,71.5176813 304.294746,73.170382 293.653449,73.170382" fill="#2E2E30" id="Fill-50"/><path d="M256.417903,387.603248 C234.678659,387.603248 218.599092,380.978615 217.602768,380.556796 C212.316714,378.330145 209.846659,372.244888 212.074551,366.968693 C214.288605,361.706328 220.342659,359.22382 225.642551,361.429725 C226.16147,361.644092 255.649903,373.482684 285.325146,361.39515 C290.631957,359.209989 296.686011,361.789309 298.851632,367.086249 C301.010335,372.397019 298.457254,378.447701 293.150443,380.605202 C280.260497,385.853737 267.591957,387.603248 256.417903,387.603248" fill="#2E2E30" id="Fill-52"/><path d="M197.13453,181.133916 C191.75853,181.133916 187.198962,176.977961 186.797665,171.52889 C182.168908,109.023613 246.0928,47.5832568 248.818854,44.9970223 C252.977124,41.055435 259.550097,41.2352267 263.486962,45.3773509 C267.430746,49.5263902 267.264692,56.0887873 263.113341,60.0372897 C262.518314,60.604325 203.603719,117.328607 207.49907,169.993745 C207.921124,175.705589 203.624476,180.684436 197.909449,181.106255 C197.653449,181.127001 197.39053,181.133916 197.13453,181.133916" fill="#2E2E30" id="Fill-54"/><path d="M314.796281,181.133916 C314.540281,181.133916 314.277362,181.127001 314.021362,181.106255 C308.306335,180.684436 304.009686,175.705589 304.431741,169.993745 C308.327092,117.328607 249.412497,60.604325 248.81747,60.0372897 C244.666119,56.0887873 244.500065,49.5263902 248.443849,45.3773509 C252.380714,41.2283117 258.960605,41.04852 263.111957,44.9970223 C265.838011,47.5832568 329.761903,109.023613 325.133146,171.52889 C324.731849,176.977961 320.172281,181.133916 314.796281,181.133916" fill="#2E2E30" id="Fill-56"/></g></g></g></svg>