<?xml version="1.0" ?><!DOCTYPE svg  PUBLIC '-//W3C//DTD SVG 1.1//EN'  'http://www.w3.org/Graphics/SVG/1.1/DTD/svg11.dtd'><svg enable-background="new 0 0 64 64" id="Layer_1" version="1.1" viewBox="0 0 64 64" xml:space="preserve" xmlns="http://www.w3.org/2000/svg" xmlns:xlink="http://www.w3.org/1999/xlink"><g><circle cx="36.8" cy="29.7" fill="#EDA86B" r="2.3"/><path d="M26.4,43.1c-2.7,0-4.8,2.2-4.8,4.8c0,2.7,2.2,4.8,4.8,4.8s4.8-2.2,4.8-4.8C31.3,45.2,29.1,43.1,26.4,43.1z    M26.4,50.9c-1.7,0-3-1.4-3-3c0-1.7,1.4-3,3-3s3,1.4,3,3C29.5,49.6,28.1,50.9,26.4,50.9z" fill="#EDA86B"/><path d="M41,28.7h14.3c-0.5-9.4-8-17-17.4-17.5v14.3C39.4,26,40.6,27.2,41,28.7z" fill="#EA7878"/><path d="M41,30.7c-0.5,1.9-2.1,3.3-4.2,3.3c-2,0-3.7-1.4-4.2-3.3H18.4c0.2,4.2,1.9,8.1,4.6,11.3   c1-0.6,2.2-0.9,3.4-0.9c3.8,0,6.8,3.1,6.8,6.8c2.3,0.4,4.8,0.5,7.1,0c0-3.8,3.1-6.8,6.8-6.8c1.2,0,2.4,0.3,3.4,0.9   c2.8-3.1,4.4-7.1,4.6-11.3H41z" fill="#EA7878"/><path d="M47.2,43.1c-2.7,0-4.8,2.2-4.8,4.8c0,2.7,2.2,4.8,4.8,4.8c2.7,0,4.8-2.2,4.8-4.8   C52.1,45.2,49.9,43.1,47.2,43.1z M47.2,50.9c-1.7,0-3-1.4-3-3c0-1.7,1.4-3,3-3c1.7,0,3,1.4,3,3C50.2,49.6,48.9,50.9,47.2,50.9z" fill="#EDA86B"/><path d="M26.4,44.9c-1.7,0-3,1.4-3,3c0,1.7,1.4,3,3,3s3-1.4,3-3C29.5,46.2,28.1,44.9,26.4,44.9z M26.4,48.9   c-0.6,0-1-0.5-1-1c0-0.6,0.5-1,1-1c0.6,0,1,0.5,1,1C27.5,48.5,27,48.9,26.4,48.9z" fill="#1E0E10"/><path d="M47.2,44.9c-1.7,0-3,1.4-3,3c0,1.7,1.4,3,3,3c1.7,0,3-1.4,3-3C50.2,46.2,48.9,44.9,47.2,44.9z M47.2,48.9   c-0.6,0-1-0.5-1-1c0-0.6,0.5-1,1-1c0.6,0,1,0.5,1,1C48.2,48.5,47.8,48.9,47.2,48.9z" fill="#1E0E10"/><path d="M36.8,9.2c-0.6,0-1,0.4-1,1v15.3c-1.6,0.4-2.8,1.6-3.2,3.2H17.9L13,19.5c-0.2-0.3-0.5-0.5-0.9-0.5H7.7   c-0.6,0-1,0.4-1,1c0,0.6,0.4,1,1,1h3.9l4.8,9.1c0.1,4.9,1.9,9.6,5.1,13.2c-1.1,1.2-1.9,2.9-1.9,4.7c0,3.8,3.1,6.8,6.8,6.8   c3.1,0,5.7-2.1,6.6-4.9c1.3,0.2,2.5,0.4,3.8,0.4c1.3,0,2.6-0.1,3.8-0.4c0.8,2.8,3.5,4.9,6.6,4.9c3.8,0,6.8-3.1,6.8-6.8   c0-1.8-0.7-3.4-1.9-4.7c3.3-3.7,5.1-8.5,5.1-13.5C57.3,18.4,48.1,9.2,36.8,9.2z M37.8,11.3c9.4,0.5,16.9,8.1,17.4,17.5H41   c-0.4-1.6-1.6-2.8-3.2-3.2V11.3z M36.8,27.4c1.3,0,2.3,1,2.3,2.3c0,1.3-1,2.3-2.3,2.3c-1.3,0-2.3-1-2.3-2.3   C34.5,28.5,35.6,27.4,36.8,27.4z M26.4,52.8c-2.7,0-4.8-2.2-4.8-4.8c0-2.7,2.2-4.8,4.8-4.8s4.8,2.2,4.8,4.8   C31.3,50.6,29.1,52.8,26.4,52.8z M47.2,52.8c-2.7,0-4.8-2.2-4.8-4.8c0-2.7,2.2-4.8,4.8-4.8c2.7,0,4.8,2.2,4.8,4.8   C52.1,50.6,49.9,52.8,47.2,52.8z M50.6,42c-1-0.6-2.2-0.9-3.4-0.9c-3.8,0-6.8,3.1-6.8,6.8c-2.3,0.5-4.8,0.4-7.1,0   c0-3.8-3.1-6.8-6.8-6.8c-1.2,0-2.4,0.3-3.4,0.9c-2.8-3.1-4.4-7.1-4.6-11.3h14.3c0.5,1.9,2.1,3.3,4.2,3.3c2,0,3.7-1.4,4.2-3.3h14.3   C55.1,34.9,53.4,38.9,50.6,42z" fill="#1E0E10"/></g></svg>