<?xml version="1.0" ?><svg style="enable-background:new 0 0 512 512;" version="1.1" viewBox="0 0 512 512" xml:space="preserve" xmlns="http://www.w3.org/2000/svg" xmlns:xlink="http://www.w3.org/1999/xlink"><g id="_x31_6_x2C__Location_x2C__map_x2C__pin_x2C__sign._mark"><g><path d="M457.21,161.459c-19.12,41.72-59.62,98.76-76.35,128.94c-12.6-22.74-40.47-63.88-61.23-100.75    c-0.7-1.25-1.4-2.5-2.09-3.74c-0.68-1.24-1.36-2.47-2.03-3.7c-0.1-0.19-0.2-0.37-0.3-0.55c-0.51-0.94-1.01-1.87-1.51-2.8    c-1.02-1.92-2.02-3.82-2.99-5.7c-0.91-1.78-1.8-3.54-2.66-5.27c-0.71-1.43-1.4-2.85-2.07-4.25    c-7.16-15.04-11.77-28.08-11.77-37.06c0-47.87,38.8-86.67,86.65-86.67c47.87,0,86.67,38.8,86.67,86.67    C467.53,135.509,463.54,147.639,457.21,161.459z M419.59,123.309c0-21.34-17.39-38.73-38.73-38.73    c-21.31,0-38.71,17.39-38.71,38.73s17.4,38.73,38.71,38.73C402.2,162.039,419.59,144.649,419.59,123.309z" style="fill:#E74C3C;"/><path d="M319.63,189.669v282.42l-137.58-50.1v-305.61l122.71,44.69c0.4,0.85,0.8,1.71,1.22,2.57    c0.67,1.4,1.36,2.82,2.07,4.25c0.85,1.74,1.74,3.49,2.66,5.27c0.97,1.88,1.97,3.78,2.99,5.7c0.5,0.93,1,1.86,1.51,2.8    c0.1,0.18,0.2,0.36,0.3,0.55c0.66,1.22,1.34,2.46,2.03,3.7c0.69,1.24,1.39,2.49,2.09,3.74V189.669z" style="fill:#95A5A6;"/><path d="M319.63,189.649c20.76,36.87,48.63,78.01,61.23,100.75c16.73-30.18,57.23-87.22,76.35-128.94    v260.53l-137.58,50.1v-282.42V189.649z" style="fill:#BDC3C7;"/><polygon points="182.05,116.379 182.05,421.989 44.47,472.089 44.47,164.709   " style="fill:#BDC3C7;"/><path d="M44.471,482.088c-2.025,0-4.032-0.615-5.736-1.808c-2.673-1.872-4.265-4.93-4.265-8.192v-307.38    c0-4.245,2.68-8.028,6.686-9.435l137.58-48.33c5.211-1.831,10.918,0.91,12.75,6.12c1.83,5.211-0.91,10.919-6.121,12.749    L54.47,171.795v286.009l124.158-45.212c5.192-1.889,10.929,0.785,12.818,5.975s-0.785,10.929-5.975,12.818l-137.58,50.1    C46.781,481.889,45.623,482.088,44.471,482.088z"/><path d="M319.629,482.091c-1.136,0-2.291-0.195-3.421-0.606l-137.58-50.1c-3.95-1.438-6.578-5.193-6.578-9.396v-305.61    c0-3.263,1.592-6.321,4.265-8.192c2.673-1.871,6.091-2.321,9.157-1.204l122.71,44.69c2.479,0.902,4.501,2.749,5.625,5.135    l0.25,0.53c0.298,0.635,0.598,1.275,0.911,1.915c2.422,4.963,0.363,10.951-4.601,13.373c-4.587,2.238-10.047,0.649-12.761-3.52    L192.05,130.663v284.325l131.002,47.704c5.189,1.89,7.864,7.629,5.975,12.818C327.548,479.57,323.713,482.091,319.629,482.091z"/><path d="M310.718,183.161c-3.637,0-7.143-1.99-8.912-5.45c-0.927-1.814-1.833-3.607-2.71-5.369    c-2.459-4.945-0.444-10.948,4.5-13.407c4.948-2.459,10.948-0.444,13.407,4.5c0.844,1.698,1.717,3.424,2.61,5.171    c2.514,4.917,0.566,10.942-4.352,13.456C313.805,182.808,312.25,183.161,310.718,183.161z"/><path d="M315.219,191.661c-3.55,0-6.988-1.895-8.799-5.234c-0.516-0.951-1.021-1.892-1.527-2.833    c-2.615-4.865-0.791-10.928,4.073-13.543c4.866-2.614,10.928-0.79,13.543,4.073c0.494,0.919,0.988,1.839,1.492,2.768    c2.633,4.855,0.832,10.925-4.023,13.558C318.462,191.271,316.829,191.661,315.219,191.661z"/><path d="M317.549,195.911c-3.533,0-6.958-1.876-8.777-5.193l-0.722-1.315c-0.442-0.804-0.883-1.606-1.32-2.408    c-2.643-4.849-0.855-10.923,3.995-13.566c4.85-2.645,10.923-0.855,13.566,3.995l2.018,3.677    c2.656,4.842,0.883,10.921-3.959,13.577C320.823,195.513,319.174,195.911,317.549,195.911z"/><path d="M319.63,199.658c-5.523,0-10-4.467-10-9.99v-0.02c0-5.523,4.477-10,10-10s10,4.477,10,10S325.153,199.658,319.63,199.658z    "/><path d="M319.631,482.088c-2.025,0-4.032-0.615-5.736-1.808c-2.673-1.872-4.265-4.93-4.265-8.192v-282.42c0-5.523,4.477-10,10-10    s10,4.477,10,10v268.136l117.58-42.816V161.458c0-5.523,4.477-10.01,10-10.01s10,4.467,10,9.99v260.55    c0,4.203-2.629,7.958-6.578,9.396l-137.58,50.1C321.94,481.889,320.782,482.088,319.631,482.088z"/><path d="M380.86,300.399C380.859,300.399,380.859,300.399,380.86,300.399c-3.636,0-6.985-1.974-8.747-5.153    c-5.61-10.124-14.293-23.942-24.347-39.942c-11.921-18.971-25.433-40.474-36.85-60.749l-2.114-3.783    c-0.71-1.276-1.409-2.55-2.088-3.805c-0.021-0.038-0.041-0.076-0.061-0.114l-0.18-0.328c-0.019-0.033-0.037-0.066-0.055-0.099    c-0.516-0.951-1.021-1.892-1.527-2.833c-1.062-1.999-2.08-3.934-3.068-5.848c-1.1-2.129-1.978-3.867-2.759-5.466    c-0.704-1.417-1.415-2.881-2.105-4.323c-0.003-0.006-0.006-0.012-0.008-0.019c-8.693-18.258-12.741-31.4-12.741-41.358    c0-53.304,43.357-96.67,96.65-96.67c53.304,0,96.67,43.366,96.67,96.67c0,9.778-3.673,22.549-11.228,39.044    c-12.421,27.102-33.104,59.65-51.352,88.367c-9.965,15.682-19.377,30.494-25.344,41.257    C387.844,298.426,384.495,300.399,380.86,300.399z M324.331,177.498c0.633,1.17,1.286,2.36,1.948,3.549l2.077,3.717    c11.167,19.833,24.542,41.118,36.344,59.898c5.969,9.499,11.462,18.24,16.17,25.982c5.004-8.188,10.841-17.374,17.2-27.38    c17.905-28.176,38.199-60.112,50.05-85.971c7.778-16.981,9.411-26.075,9.411-30.714c0-42.276-34.394-76.67-76.67-76.67    c-42.265,0-76.65,34.394-76.65,76.67c0,4.598,1.874,14.013,10.799,32.762c0.647,1.351,1.313,2.722,1.998,4.102    c0.846,1.729,1.702,3.413,2.587,5.125c0.954,1.85,1.936,3.714,2.937,5.599c0.463,0.861,0.948,1.763,1.442,2.675    C324.093,177.056,324.212,177.272,324.331,177.498z"/><path d="M380.86,172.039c-26.859,0-48.71-21.86-48.71-48.73s21.851-48.73,48.71-48.73c26.87,0,48.73,21.86,48.73,48.73    S407.729,172.039,380.86,172.039z M380.86,94.579c-15.831,0-28.71,12.888-28.71,28.73s12.879,28.73,28.71,28.73    c15.842,0,28.73-12.888,28.73-28.73S396.702,94.579,380.86,94.579z"/></g></g><g id="Layer_1"/></svg>